<?xml version="1.0" encoding="utf-8"?>
<!--
	Icon by Hay Kranen < http://www.haykranen.nl >
	Uses elements designed by Michael Rowe < http://www.thenounproject.com/Mikhail1986 >
	from the Noun Project < http://www.thenounproject.com >, licensed under CC-BY 3.0
-->

<!DOCTYPE svg PUBLIC "-//W3C//DTD SVG 1.1//EN" "http://www.w3.org/Graphics/SVG/1.1/DTD/svg11.dtd">
<svg version="1.1" id="Layer_1" xmlns="http://www.w3.org/2000/svg" xmlns:xlink="http://www.w3.org/1999/xlink" x="0px" y="0px"
	 width="55px" height="56px" viewBox="0 0 55 56" enable-background="new 0 0 55 56" xml:space="preserve">
<g>
	<rect fill="#008CBB" width="55" height="56"/>
	<g>
		<path fill="#FFFFFF" d="M27.076,39.828c0,1.136,0.926,2.061,2.061,2.061c1.137,0,2.062-0.925,2.062-2.061
			c0-1.137-0.926-2.062-2.062-2.062C28.002,37.767,27.076,38.691,27.076,39.828z"/>
		<path fill="#FFFFFF" d="M19.947,39.828c0,1.136,0.925,2.061,2.061,2.061c1.137,0,2.061-0.925,2.061-2.061
			c0-1.137-0.924-2.062-2.061-2.062C20.871,37.767,19.947,38.691,19.947,39.828z"/>
		<path fill="#FFFFFF" d="M12.817,39.828c0,1.136,0.925,2.061,2.06,2.061c1.137,0,2.061-0.925,2.061-2.061
			c0-1.137-0.924-2.062-2.061-2.062C13.742,37.767,12.817,38.691,12.817,39.828z"/>
		<polygon fill="#FFFFFF" points="35.283,18.582 36.695,16.285 34.48,14.923 32.685,17.844 32.684,17.844 32.684,23.322
			35.283,23.322 		"/>
		<path fill="#FFFFFF" d="M9.251,39.718c0,3.1,2.524,5.624,5.626,5.624h14.26c3.102,0,5.627-2.524,5.627-5.624
			c0-3.104-2.525-5.626-5.627-5.626h-14.26C11.775,34.092,9.251,36.614,9.251,39.718z M11.034,39.718
			c0-2.122,1.726-3.845,3.843-3.845h14.26c2.121,0,3.844,1.724,3.844,3.845c0,2.118-1.723,3.842-3.844,3.842h-14.26
			C12.759,43.56,11.034,41.836,11.034,39.718z"/>
		<path fill="#FFFFFF" d="M5.576,23.953v16.041h2.798c-0.003-0.093-0.014-0.186-0.014-0.276c0-3.595,2.924-6.519,6.518-6.519h14.261
			c3.594,0,6.516,2.924,6.516,6.519c0,0.091-0.009,0.184-0.013,0.276h4.47v-6.812h1.813c0.593,3.854,3.899,6.822,7.916,6.822v-2.547
			c-3.026,0-5.491-2.463-5.491-5.491c0-3.027,2.465-5.49,5.491-5.49v-2.547c-4.017,0-7.323,2.968-7.916,6.822h-1.813v-6.796h-9.585
			l-4.453-12.478h-4.457h-2.673h-5.348v3.565v8.913H5.576z M17.161,14.149h6.621l3.183,9.804v5.348h-1.819h-6.313h-1.671v-5.348
			V14.149z M12.274,30.303H7.818v-4.456h4.456V30.303z"/>
	</g>
</g>
</svg>
